<?xml version="1.0" encoding="UTF-8"?>
<svg id="Layer_1" data-name="Layer 1" xmlns="http://www.w3.org/2000/svg" viewBox="0 0 800 1280">
  <defs>
    <style>
      .cls-1 {
        fill: #fff;
      }
    </style>
  </defs>
  <path class="cls-1" d="M94.44,457.3v450h450v-450H94.44ZM319.44,828.31c-80.63,0-146.01-65.38-146.01-146.01s65.38-146.01,146.01-146.01,146.01,65.38,146.01,146.01-65.38,146.01-146.01,146.01Z"/>
  <path class="cls-1" d="M103.3,439.1c1.03-.48,1.88-1.18,2.58-2.12.69-.94,1.21-2.07,1.55-3.4.34-1.33.51-2.85.51-4.56s-.18-3.26-.54-4.6-.89-2.48-1.58-3.4c-.69-.93-1.55-1.62-2.57-2.09-1.02-.47-2.18-.7-3.5-.7h-4.4v.49c0,.25.04.44.13.57s.25.26.49.4c.2.13.34.25.42.36.08.12.12.31.12.58v16.79c0,.25-.04.44-.12.57-.08.13-.22.25-.42.38-.23.13-.4.25-.49.38-.09.13-.13.32-.13.59v.49h4.35c1.37,0,2.57-.24,3.59-.72ZM99.07,438.52c-.19-.02-.38-.04-.58-.05v-18.95c.22-.02.43-.03.65-.04.22,0,.42-.01.62-.01.99,0,1.86.22,2.62.65.76.43,1.38,1.07,1.88,1.92.5.85.87,1.88,1.13,3.09.26,1.22.39,2.59.39,4.12,0,2.07-.22,3.8-.65,5.18-.43,1.39-1.1,2.42-2.01,3.1-.91.68-2.08,1.03-3.5,1.03-.18,0-.36,0-.55-.03Z"/>
  <path class="cls-1" d="M111.53,439.21c.65.6,1.46.9,2.43.9s1.7-.27,2.3-.81c.59-.54,1.08-1.18,1.46-1.92-.31-.22-.53-.32-.68-.32-.13,0-.3.13-.51.4-.32.38-.65.69-.97.93-.32.24-.72.36-1.19.36-.58,0-1.08-.2-1.5-.59-.42-.4-.75-1.01-.99-1.84-.22-.76-.33-1.71-.34-2.81h6.12c0-1.4-.15-2.57-.46-3.5-.31-.93-.75-1.62-1.32-2.09-.58-.47-1.26-.7-2.05-.7-.92,0-1.68.27-2.29.81s-1.08,1.29-1.42,2.24c-.33.95-.5,2.05-.5,3.29,0,1.17.16,2.25.47,3.24.31.99.8,1.79,1.44,2.39ZM112.41,428.99c.33-.49.8-.73,1.39-.73.67,0,1.17.35,1.5,1.05.33.7.5,1.72.5,3.05h-4.23c.03-.52.07-1.03.16-1.51.12-.76.35-1.38.69-1.86Z"/>
  <path class="cls-1" d="M120.47,430.91c.38,0,.67-.13.89-.38.22-.25.32-.57.32-.94,0-.27-.06-.54-.18-.8-.05-.11-.12-.21-.19-.32.07-.04.14-.09.21-.12.3-.12.62-.18.96-.18.67,0,1.17.28,1.5.84.33.56.5,1.55.5,2.97v.79c-.96.03-1.83.21-2.61.56-.84.38-1.49.89-1.94,1.53-.46.64-.69,1.39-.69,2.25,0,.58.11,1.09.34,1.55.22.46.54.81.95,1.07.4.25.88.38,1.42.38s1.06-.14,1.51-.42c.45-.28.82-.67,1.12-1.19.07-.12.11-.26.17-.38l.03,1.72,2.51-.03v-.43c0-.22-.03-.37-.09-.47-.06-.1-.19-.2-.39-.31-.16-.11-.27-.23-.34-.35s-.09-.29-.09-.49v-6.29c0-1.39-.31-2.44-.92-3.16-.61-.72-1.5-1.08-2.67-1.08-.67,0-1.27.11-1.81.32-.54.22-.97.5-1.28.86-.32.36-.47.77-.47,1.21,0,.38.12.68.35.92.23.23.53.35.89.35ZM123.6,438.49c-.27.23-.58.35-.92.35-.45,0-.81-.18-1.08-.54-.27-.36-.41-.83-.41-1.4,0-.97.36-1.73,1.07-2.28.57-.44,1.33-.7,2.25-.78v2.42c0,.49-.09.92-.26,1.31s-.39.7-.66.93Z"/>
  <path class="cls-1" d="M130.44,439.32c.58.53,1.25.8,1.98.8.59,0,1.12-.16,1.59-.49.46-.32.83-.74,1.12-1.26l.1,1.47,2.46-.03v-.43c0-.22-.03-.37-.09-.47-.06-.1-.19-.2-.39-.31-.16-.11-.27-.23-.34-.35s-.09-.29-.09-.49v-19.71l-2.94.16v.43c0,.27.05.46.16.57.11.11.23.19.38.26.14.06.27.14.38.24.11.1.16.29.16.58v8.08s-.04-.07-.07-.1c-.59-.69-1.33-1.04-2.23-1.04-.79,0-1.49.27-2.09.82-.6.55-1.08,1.31-1.42,2.28s-.51,2.1-.51,3.38.16,2.4.49,3.36c.32.96.78,1.71,1.36,2.24ZM131.24,429.75c.41-.94.97-1.4,1.67-1.4.36,0,.69.12,1,.36.31.24.55.56.74.94.19.39.28.81.28,1.28v5.51c0,.41-.1.81-.3,1.2s-.45.71-.76.96-.64.38-1,.38c-.7,0-1.25-.48-1.66-1.44-.41-.96-.61-2.27-.61-3.93s.21-2.92.62-3.86Z"/>
  <path class="cls-1" d="M146.23,438.79c.95.88,2.09,1.32,3.4,1.32,1.13,0,2.1-.32,2.89-.97.79-.65,1.47-1.54,2.02-2.67-.36-.29-.65-.43-.86-.43s-.43.13-.65.4c-.5.74-1,1.26-1.49,1.58-.49.31-1.03.47-1.62.47-.94,0-1.74-.37-2.4-1.11-.67-.74-1.17-1.82-1.53-3.25-.35-1.43-.53-3.16-.53-5.2s.17-3.73.51-5.18c.34-1.46.85-2.58,1.51-3.38s1.49-1.19,2.46-1.19c.52,0,1.03.15,1.51.45.49.3.87.88,1.16,1.74.13.34.27.58.42.7.15.13.33.19.53.19h.46v-3.7h-2.09c-.22-.15-.45-.29-.74-.4-.41-.16-.91-.24-1.53-.24-1.33,0-2.48.45-3.43,1.34s-1.69,2.16-2.2,3.82c-.51,1.66-.77,3.65-.77,5.97s.25,4.31.76,5.95,1.23,2.91,2.19,3.79Z"/>
  <path class="cls-1" d="M157.8,439.32c.64.53,1.38.8,2.23.8s1.59-.27,2.24-.8c.65-.53,1.15-1.28,1.51-2.24.36-.96.54-2.1.54-3.42s-.18-2.45-.54-3.4c-.36-.95-.86-1.7-1.51-2.23-.65-.53-1.39-.8-2.24-.8s-1.58.27-2.21.8c-.63.53-1.13,1.27-1.5,2.23-.37.95-.55,2.09-.55,3.4s.18,2.45.54,3.42c.36.96.86,1.71,1.5,2.24ZM158.34,429.61c.39-.92.96-1.38,1.71-1.38s1.3.46,1.67,1.38.57,2.27.57,4.05-.19,3.13-.57,4.05-.94,1.38-1.67,1.38-1.33-.46-1.71-1.38c-.39-.92-.58-2.27-.58-4.05s.19-3.13.58-4.05Z"/>
  <path class="cls-1" d="M166.96,437.76c0,.2-.03.36-.09.49-.06.13-.19.23-.37.32-.18.13-.31.24-.38.34s-.11.26-.11.47v.43h3.92v-.43c0-.22-.04-.37-.12-.47s-.24-.21-.47-.34c-.18-.09-.31-.2-.39-.32-.08-.13-.12-.29-.12-.49v-9.15h4.1v9.15c0,.2-.03.36-.09.49-.06.13-.18.23-.36.32-.16.13-.28.24-.35.34s-.11.26-.11.47v.43h3.89v-.43c0-.22-.04-.37-.12-.47s-.23-.21-.45-.34c-.2-.09-.34-.2-.42-.32s-.12-.29-.12-.49v-9.15h2.38v-1.08h-2.38v-4.72c0-1.55.14-2.62.43-3.23.27-.56.69-.85,1.27-.89-.19.16-.34.33-.43.52-.14.31-.22.59-.22.84,0,.4.11.72.34.96.22.24.53.36.9.36s.68-.13.92-.38c.23-.25.35-.61.35-1.08,0-.38-.08-.72-.24-1.03s-.4-.54-.7-.72c-.31-.17-.67-.26-1.08-.26-.63,0-1.19.19-1.69.58-.5.39-.88.96-1.15,1.71-.27.76-.41,1.7-.41,2.83v3.51c0,.36-.12.61-.35.76-.23.14-.63.22-1.19.22h-2.73v-4.72c0-1.55.14-2.62.42-3.23.25-.55.68-.84,1.25-.88-.18.16-.33.33-.42.52-.14.31-.2.59-.2.84,0,.4.11.72.34.96.22.24.53.36.9.36s.68-.13.92-.38.35-.61.35-1.08c0-.38-.08-.72-.24-1.03s-.4-.54-.7-.72c-.31-.17-.67-.26-1.11-.26-.63,0-1.18.19-1.66.58-.48.39-.86.96-1.13,1.71-.28.76-.42,1.7-.42,2.83v3.54c0,.25-.06.43-.19.54-.13.11-.27.2-.42.27-.15.07-.29.16-.42.26-.13.1-.19.27-.19.5v.46h1.05v9.15Z"/>
  <path class="cls-1" d="M178.45,436.82c.31.99.8,1.79,1.44,2.39.65.6,1.46.9,2.43.9s1.7-.27,2.3-.81c.59-.54,1.08-1.18,1.46-1.92-.31-.22-.53-.32-.68-.32-.13,0-.3.13-.51.4-.32.38-.65.69-.97.93-.32.24-.72.36-1.19.36-.58,0-1.08-.2-1.5-.59-.42-.4-.75-1.01-.99-1.84-.22-.76-.33-1.71-.34-2.81h6.12c0-1.4-.15-2.57-.46-3.5-.31-.93-.75-1.62-1.32-2.09-.58-.47-1.26-.7-2.05-.7-.92,0-1.68.27-2.29.81s-1.08,1.29-1.42,2.24c-.33.95-.5,2.05-.5,3.29,0,1.17.16,2.25.47,3.24ZM180.77,428.99c.33-.49.8-.73,1.39-.73.67,0,1.17.35,1.5,1.05.33.7.5,1.72.5,3.05h-4.23c.03-.52.07-1.03.16-1.51.12-.76.35-1.38.69-1.86Z"/>
  <path class="cls-1" d="M189.42,439.21c.65.6,1.46.9,2.43.9s1.7-.27,2.3-.81c.59-.54,1.08-1.18,1.46-1.92-.31-.22-.53-.32-.68-.32-.13,0-.3.13-.51.4-.32.38-.65.69-.97.93-.32.24-.72.36-1.19.36-.58,0-1.08-.2-1.5-.59-.42-.4-.75-1.01-.99-1.84-.22-.76-.33-1.71-.34-2.81h6.12c0-1.4-.15-2.57-.46-3.5-.31-.93-.75-1.62-1.32-2.09-.58-.47-1.26-.7-2.05-.7-.92,0-1.68.27-2.29.81s-1.08,1.29-1.42,2.24c-.33.95-.5,2.05-.5,3.29,0,1.17.16,2.25.47,3.24.31.99.8,1.79,1.44,2.39ZM190.3,428.99c.33-.49.8-.73,1.39-.73.67,0,1.17.35,1.5,1.05.33.7.5,1.72.5,3.05h-4.23c.03-.52.07-1.03.16-1.51.12-.76.35-1.38.69-1.86Z"/>
  <path class="cls-1" d="M210.97,435.55h-.49c-.27,0-.47.1-.61.3-.13.2-.23.45-.3.74-.06.3-.13.6-.19.9-.06.31-.16.56-.3.76-.13.2-.35.3-.63.3h-5.51l7.37-18.31c.11-.25.19-.48.24-.67.05-.2.09-.4.12-.61.03-.21.04-.45.04-.74h-8.37c-.23,0-.46,0-.69-.01-.23,0-.44-.01-.63-.01v4.08h.46c.25,0,.44-.09.57-.28s.22-.42.28-.7c.06-.28.13-.55.19-.82.06-.27.16-.5.28-.69s.32-.28.59-.28h5.12l-7.42,18.28c-.13.31-.22.56-.28.77-.06.21-.1.4-.12.58-.02.18-.03.41-.03.7h10.29v-4.27Z"/>
  <path class="cls-1" d="M213.86,423.1c.36,0,.66-.12.89-.36.23-.24.35-.54.35-.9,0-.4-.12-.71-.35-.93-.23-.22-.53-.34-.89-.34s-.66.11-.9.34c-.24.23-.36.54-.36.93,0,.36.12.66.36.9.24.24.54.36.9.36Z"/>
  <path class="cls-1" d="M212.74,428.79c.13.06.25.14.35.24.1.1.15.29.15.58v8.15c0,.2-.03.36-.09.49-.06.13-.19.23-.37.32-.18.13-.3.24-.36.34-.06.1-.09.26-.09.47v.43h3.73v-.43c0-.22-.03-.37-.09-.47-.06-.1-.19-.21-.39-.34-.16-.09-.27-.2-.34-.32-.06-.13-.09-.29-.09-.49v-10.4l-2.89.16v.43c0,.27.05.46.15.57.1.11.22.19.35.26Z"/>
  <path class="cls-1" d="M218.17,428.79c.13.06.25.14.35.24.1.1.15.29.15.58v8.15c0,.2-.03.36-.09.49-.06.13-.19.23-.37.32-.18.13-.3.24-.36.34-.06.1-.09.26-.09.47v.43h3.65v-.43c0-.22-.03-.37-.08-.47s-.17-.21-.35-.34c-.16-.09-.27-.2-.32-.32-.05-.13-.08-.29-.08-.49v-6.75c0-.5.09-.94.27-1.31.18-.37.43-.67.74-.89.31-.23.68-.34,1.09-.34.52,0,.93.2,1.23.59.3.4.45.95.45,1.65v7.05c0,.2-.03.36-.09.49-.06.13-.17.23-.31.32-.16.13-.28.24-.34.34-.06.1-.09.26-.09.47v.43h3.65v-.43c0-.22-.03-.37-.09-.47-.06-.1-.19-.21-.39-.34-.16-.09-.27-.2-.34-.32-.06-.13-.09-.29-.09-.49v-7.45c0-.49-.07-.92-.2-1.3-.13-.38-.32-.7-.57-.96s-.54-.46-.89-.61c-.35-.14-.75-.22-1.2-.22-.81,0-1.52.24-2.12.73-.4.32-.7.73-.92,1.22l.02-1.81-2.67.16v.43c0,.27.05.46.15.57.1.11.22.19.35.26Z"/>
  <path class="cls-1" d="M230.49,439.21c.65.6,1.46.9,2.43.9s1.7-.27,2.3-.81c.59-.54,1.08-1.18,1.46-1.92-.31-.22-.53-.32-.68-.32-.13,0-.3.13-.51.4-.32.38-.65.69-.97.93-.32.24-.72.36-1.19.36-.58,0-1.08-.2-1.5-.59-.42-.4-.75-1.01-.99-1.84-.22-.76-.33-1.71-.34-2.81h6.12c0-1.4-.15-2.57-.46-3.5-.31-.93-.75-1.62-1.32-2.09-.58-.47-1.26-.7-2.05-.7-.92,0-1.68.27-2.29.81s-1.08,1.29-1.42,2.24c-.33.95-.5,2.05-.5,3.29,0,1.17.16,2.25.47,3.24.31.99.8,1.79,1.44,2.39ZM231.37,428.99c.33-.49.8-.73,1.39-.73.67,0,1.17.35,1.5,1.05.33.7.5,1.72.5,3.05h-4.23c.03-.52.07-1.03.16-1.51.12-.76.35-1.38.69-1.86Z"/>
</svg>